# xmcd
#
# Track frame offsets:
#  150
#  17983
#  31969
#  48787
#  59293
#  74443
#  88696
#  108053
#  127859
#  136594
#  155480
#  192664
#  217811
#
# Disc length: 3161 seconds
#
# Revision: 0
# Processed by: cddbd v1.5.2PL0 Copyright (c) Steve Scherf et al.
# Submitted via: AltoMP3_Maker 3.0
#
DISCID=a80c570d
DTITLE=Walter Liniger et al. - Sidemeat
DYEAR=2007
DGENRE=Blues
TTITLE0=Train I Ride
TTITLE1=Boogie
TTITLE2=Death Bells
TTITLE3=Mattie Mae
TTITLE4=Madison Stomp
TTITLE5=Long Haired Doney
TTITLE6=Lonesome Day
TTITLE7=Too Late
TTITLE8=Careless Love
TTITLE9=Rollin' and Tumblin'
TTITLE10=I went to the belly
TTITLE11=Big Boss Man
TTITLE12=John Henry
EXTD=
EXTT0=
EXTT1=
EXTT2=
EXTT3=
EXTT4=
EXTT5=
EXTT6=
EXTT7=
EXTT8=
EXTT9=
EXTT10=
EXTT11=
EXTT12=
PLAYORDER=
